<svg aria-hidden="true" style="position: absolute; width: 0; height: 0; overflow: hidden;" version="1.1"
  xmlns="http://www.w3.org/2000/svg" xmlns:xlink="http://www.w3.org/1999/xlink">
  <defs>
    <symbol id="icon-envelop" viewBox="0 0 32 32">
      <path
        d="M29 4h-26c-1.65 0-3 1.35-3 3v20c0 1.65 1.35 3 3 3h26c1.65 0 3-1.35 3-3v-20c0-1.65-1.35-3-3-3zM12.461 17.199l-8.461 6.59v-15.676l8.461 9.086zM5.512 8h20.976l-10.488 7.875-10.488-7.875zM12.79 17.553l3.21 3.447 3.21-3.447 6.58 8.447h-19.579l6.58-8.447zM19.539 17.199l8.461-9.086v15.676l-8.461-6.59z">
      </path>
    </symbol>
    <symbol id="icon-whatsapp" viewBox="0 0 32 32">
      <path
        d="M27.281 4.65c-2.994-3-6.975-4.65-11.219-4.65-8.738 0-15.85 7.112-15.85 15.856 0 2.794 0.731 5.525 2.119 7.925l-2.25 8.219 8.406-2.206c2.319 1.262 4.925 1.931 7.575 1.931h0.006c0 0 0 0 0 0 8.738 0 15.856-7.113 15.856-15.856 0-4.238-1.65-8.219-4.644-11.219zM16.069 29.050v0c-2.369 0-4.688-0.637-6.713-1.837l-0.481-0.288-4.987 1.306 1.331-4.863-0.313-0.5c-1.325-2.094-2.019-4.519-2.019-7.012 0-7.269 5.912-13.181 13.188-13.181 3.519 0 6.831 1.375 9.319 3.862 2.488 2.494 3.856 5.8 3.856 9.325-0.006 7.275-5.919 13.188-13.181 13.188zM23.294 19.175c-0.394-0.2-2.344-1.156-2.706-1.288s-0.625-0.2-0.894 0.2c-0.262 0.394-1.025 1.288-1.256 1.556-0.231 0.262-0.462 0.3-0.856 0.1s-1.675-0.619-3.188-1.969c-1.175-1.050-1.975-2.35-2.206-2.744s-0.025-0.613 0.175-0.806c0.181-0.175 0.394-0.463 0.594-0.694s0.262-0.394 0.394-0.662c0.131-0.262 0.069-0.494-0.031-0.694s-0.894-2.15-1.219-2.944c-0.319-0.775-0.65-0.669-0.894-0.681-0.231-0.012-0.494-0.012-0.756-0.012s-0.694 0.1-1.056 0.494c-0.363 0.394-1.387 1.356-1.387 3.306s1.419 3.831 1.619 4.1c0.2 0.262 2.794 4.269 6.769 5.981 0.944 0.406 1.681 0.65 2.256 0.837 0.95 0.3 1.813 0.256 2.494 0.156 0.762-0.113 2.344-0.956 2.675-1.881s0.331-1.719 0.231-1.881c-0.094-0.175-0.356-0.275-0.756-0.475z">
      </path>
    </symbol>
    <symbol id="icon-telegram" viewBox="0 0 32 32">
      <path
        d="M25.6 5.867l-21.733 8.4c-1.467 0.533-1.467 1.467-0.267 1.733l5.467 1.733 2.133 6.4c0.267 0.667 0.133 0.933 0.8 0.933 0.533 0 0.8-0.267 1.067-0.533 0.133-0.133 1.333-1.333 2.667-2.667l5.6 4.133c1.067 0.533 1.733 0.267 2-0.933l3.733-17.467c0.4-1.467-0.533-2.267-1.467-1.733zM22.8 9.867l-10.4 9.467-0.4 4.4-2.133-6.4 12.267-7.733c0.533-0.4 1.067-0.133 0.667 0.267z">
      </path>
    </symbol>
    <symbol id="icon-viber" viewBox="0 0 32 32">
      <path
        d="M15.198 0.005c-2.568 0.031-8.089 0.453-11.177 3.286-2.297 2.276-3.099 5.641-3.193 9.802-0.078 4.146-0.172 11.932 7.333 14.052v3.229c0 0-0.047 1.292 0.807 1.557 1.052 0.333 1.651-0.661 2.651-1.729l1.865-2.109c5.135 0.427 9.068-0.557 9.521-0.703 1.042-0.333 6.911-1.083 7.87-8.87 0.984-8.042-0.479-13.109-3.12-15.401h-0.016c-0.797-0.734-4-3.068-11.156-3.094 0 0-0.531-0.036-1.385-0.021zM15.286 2.266c0.729-0.005 1.172 0.026 1.172 0.026 6.057 0.016 8.948 1.839 9.63 2.453 2.224 1.906 3.37 6.474 2.531 13.188-0.797 6.51-5.557 6.922-6.438 7.203-0.375 0.12-3.839 0.974-8.203 0.693 0 0-3.25 3.922-4.266 4.932-0.161 0.177-0.349 0.229-0.469 0.203-0.172-0.042-0.224-0.255-0.214-0.547l0.031-5.359c-6.365-1.76-5.99-8.401-5.922-11.87 0.078-3.469 0.729-6.307 2.667-8.229 2.609-2.359 7.297-2.677 9.479-2.693zM15.766 5.734c-0.219-0.005-0.401 0.177-0.401 0.396 0 0.224 0.182 0.401 0.401 0.401 2.005-0.036 3.938 0.724 5.375 2.12 1.453 1.411 2.161 3.307 2.188 5.786 0 0.219 0.177 0.401 0.401 0.401v-0.016c0.219 0 0.401-0.177 0.401-0.396 0.099-2.359-0.776-4.651-2.417-6.349-1.583-1.547-3.589-2.344-5.948-2.344zM10.495 6.651c-0.281-0.042-0.573 0.016-0.818 0.161h-0.021c-0.542 0.318-1.047 0.719-1.526 1.255-0.365 0.422-0.563 0.849-0.615 1.26-0.031 0.245-0.010 0.49 0.063 0.724l0.026 0.016c0.411 1.208 0.948 2.37 1.604 3.464 0.844 1.536 1.885 2.958 3.094 4.229l0.036 0.052 0.057 0.042 0.036 0.042 0.042 0.036c1.276 1.214 2.698 2.255 4.24 3.109 1.76 0.958 2.828 1.411 3.469 1.599v0.010c0.188 0.057 0.359 0.083 0.531 0.083 0.547-0.042 1.063-0.26 1.469-0.63 0.521-0.469 0.932-0.984 1.24-1.531v-0.010c0.307-0.578 0.203-1.125-0.24-1.495-0.885-0.776-1.849-1.464-2.865-2.057-0.682-0.37-1.375-0.146-1.656 0.229l-0.599 0.755c-0.307 0.375-0.865 0.323-0.865 0.323l-0.016 0.010c-4.161-1.063-5.271-5.276-5.271-5.276s-0.052-0.573 0.333-0.865l0.75-0.604c0.359-0.292 0.609-0.984 0.224-1.667-0.589-1.021-1.276-1.979-2.052-2.865-0.167-0.208-0.406-0.349-0.672-0.401zM16.458 7.839c-0.531 0-0.531 0.802 0.005 0.802 1.333 0.021 2.604 0.573 3.531 1.531 0.844 0.932 1.281 2.172 1.198 3.427 0.005 0.219 0.182 0.396 0.401 0.396l0.016 0.021c0.219 0 0.401-0.182 0.401-0.401 0.036-1.589-0.458-2.922-1.427-3.99-0.974-1.068-2.333-1.667-4.068-1.786-0.021 0-0.036 0-0.057 0zM17.115 9.995c-0.547-0.016-0.568 0.802-0.026 0.818 1.318 0.068 1.958 0.734 2.042 2.104 0.005 0.219 0.182 0.391 0.396 0.391h0.016c0.224-0.010 0.401-0.203 0.385-0.427-0.094-1.786-1.068-2.792-2.797-2.885-0.005 0-0.010 0-0.016 0z">
      </path>
    </symbol>
    <symbol id="icon-arrow" viewBox="0 0 32 32">
      <path d="M10.667 6.667v18.667l14.667-9.333z"></path>
    </symbol>
  </defs>
</svg>