<?xml version="1.0" encoding="UTF-8"?>
<!DOCTYPE svg PUBLIC "-//W3C//DTD SVG 1.1//EN" "http://www.w3.org/Graphics/SVG/1.1/DTD/svg11.dtd">
<!-- Creator: CorelDRAW 2021 (64-Bit) -->
<svg xmlns="http://www.w3.org/2000/svg" xml:space="preserve" width="310px" height="72px" version="1.1"
  style="shape-rendering:geometricPrecision; text-rendering:geometricPrecision; image-rendering:optimizeQuality; fill-rule:evenodd; clip-rule:evenodd"
  viewBox="0 0 310 72" xmlns:xlink="http://www.w3.org/1999/xlink" xmlns:xodm="http://www.corel.com/coreldraw/odm/2003">
  <defs>
    <style type="text/css">
      <![CDATA[
      .fil5 {
        fill: #2B2A29;
        fill-rule: nonzero
      }

      .fil4 {
        fill: #A38F66;
        fill-rule: nonzero
      }

      .fil1 {
        fill: #B89D6E;
        fill-rule: nonzero
      }

      .fil0 {
        fill: url(#id0)
      }

      .fil3 {
        fill: url(#id1)
      }

      .fil2 {
        fill: url(#id2)
      }
      ]]>
    </style>
    <linearGradient id="id0" gradientUnits="userSpaceOnUse" x1="70.26" y1="5.37" x2="-15.61" y2="70.21">
      <stop offset="0" style="stop-opacity:1; stop-color:#B89D6E" />
      <stop offset="0.8" style="stop-opacity:1; stop-color:#DBCDB6" />
      <stop offset="1" style="stop-opacity:1; stop-color:#FEFEFE" />
    </linearGradient>
    <linearGradient id="id1" gradientUnits="userSpaceOnUse" x1="54.86" y1="48.6" x2="73.84" y2="-36.77">
      <stop offset="0" style="stop-opacity:1; stop-color:#A38F66" />
      <stop offset="0.6" style="stop-opacity:1; stop-color:#D0C6B2" />
      <stop offset="1" style="stop-opacity:1; stop-color:#FEFEFE" />
    </linearGradient>
    <linearGradient id="id2" gradientUnits="userSpaceOnUse" x1="8.11" y1="23.71" x2="49.59" y2="83.28">
      <stop offset="0" style="stop-opacity:1; stop-color:#E1C998" />
      <stop offset="0.701961" style="stop-opacity:1; stop-color:#EFE3CB" />
      <stop offset="1" style="stop-opacity:1; stop-color:#FEFEFE" />
    </linearGradient>
  </defs>
  <g id="Слой_x0020_1">
    <metadata id="CorelCorpID_0Corel-Layer" />
    <g id="_2570864084720">
      <g>
        <polygon class="fil0" points="-0.04,0.23 70.26,0.23 70.26,72.88 -0.04,72.88 " />
        <path id="_1" class="fil1"
          d="M70.26 0.31l-70.3 0 0 -0.17 70.3 0 0.09 0.09 -0.09 0.08zm0 -0.17l0.09 0 0 0.09 -0.09 -0.09zm-0.08 72.74l0 -72.65 0.17 0 0 72.65 -0.09 0.09 -0.08 -0.09zm0.17 0l0 0.09 -0.09 0 0.09 -0.09zm-70.39 -0.08l70.3 0 0 0.17 -70.3 0 -0.08 -0.09 0.08 -0.08zm0 0.17l-0.08 0 0 -0.09 0.08 0.09zm0.08 -72.74l0 72.65 -0.16 0 0 -72.65 0.08 -0.09 0.08 0.09zm-0.16 0l0 -0.09 0.08 0 -0.08 0.09z" />
      </g>
      <g>
        <polygon class="fil2" points="3.39,3.77 66.84,3.77 66.84,69.34 3.39,69.34 " />
        <path id="_1_0" class="fil1"
          d="M66.84 3.86l-63.45 0 0 -0.17 63.45 0 0.08 0.08 -0.08 0.09zm0 -0.17l0.08 0 0 0.08 -0.08 -0.08zm-0.09 65.65l0 -65.57 0.17 0 0 65.57 -0.08 0.09 -0.09 -0.09zm0.17 0l0 0.09 -0.08 0 0.08 -0.09zm-63.53 -0.09l63.45 0 0 0.18 -63.45 0 -0.08 -0.09 0.08 -0.09zm0 0.18l-0.08 0 0 -0.09 0.08 0.09zm0.08 -65.66l0 65.57 -0.16 0 0 -65.57 0.08 -0.08 0.08 0.08zm-0.16 0l0 -0.08 0.08 0 -0.08 0.08z" />
      </g>
      <g>
        <polygon class="fil3" points="36,3.77 66.84,3.77 66.84,69.34 36,69.34 " />
        <path id="_1_1" class="fil4"
          d="M66.84 3.86l-30.84 0 0 -0.17 30.84 0 0.08 0.08 -0.08 0.09zm0 -0.17l0.08 0 0 0.08 -0.08 -0.08zm-0.09 65.65l0 -65.57 0.17 0 0 65.57 -0.08 0.09 -0.09 -0.09zm0.17 0l0 0.09 -0.08 0 0.08 -0.09zm-30.92 -0.09l30.84 0 0 0.18 -30.84 0 -0.08 -0.09 0.08 -0.09zm0 0.18l-0.08 0 0 -0.09 0.08 0.09zm0.09 -65.66l0 65.57 -0.17 0 0 -65.57 0.08 -0.08 0.09 0.08zm-0.17 0l0 -0.08 0.08 0 -0.08 0.08z" />
      </g>
      <path class="fil5"
        d="M42 33.62l13.42 0 -0.91 4 -1.21 0c-0.59,0 -1.02,0.05 -1.28,0.15 -0.4,0.15 -0.7,0.4 -0.91,0.74 -0.21,0.34 -0.41,0.94 -0.57,1.82l-3.53 16.27c-0.14,0.52 -0.2,0.83 -0.2,0.92 0,0.17 0.07,0.3 0.23,0.39 0.16,0.09 0.47,0.13 0.91,0.13l0.93 0c1.51,0 2.64,-0.06 3.38,-0.18 1.24,-0.22 2.34,-0.61 3.3,-1.2 0.96,-0.59 1.82,-1.39 2.57,-2.39 0.76,-1 1.42,-2.21 1.98,-3.62l3.54 1.56 -4.88 10.38 -23.27 0 0.88 -3.99 0.95 0c0.78,0 1.35,-0.07 1.67,-0.21 0.32,-0.15 0.58,-0.34 0.77,-0.63 0.18,-0.27 0.38,-0.86 0.58,-1.76l3.47 -15.97c0.14,-0.67 0.22,-1.09 0.22,-1.24 0,-0.38 -0.12,-0.69 -0.37,-0.92 -0.18,-0.16 -0.54,-0.25 -1.08,-0.25l-1.45 0 0.86 -4 0 0zm-35.45 -24.89l12.66 0 4.86 17.51 4.98 -17.51 12.9 0 0 3.99 -1.38 0c-0.75,0 -1.26,0.16 -1.55,0.48 -0.29,0.33 -0.43,0.94 -0.43,1.84l0 16.41c0,0.72 0.04,1.16 0.12,1.34 0.12,0.28 0.29,0.47 0.5,0.59 0.29,0.16 0.68,0.24 1.16,0.24l1.58 0 0 3.99 -13.45 0 0 -3.99 1.04 0c0.76,0 1.28,-0.06 1.54,-0.18 0.27,-0.13 0.47,-0.32 0.59,-0.58 0.13,-0.25 0.19,-0.73 0.19,-1.41l0 -17.78 -6.81 23.94 -3.86 0 -6.6 -23.17 0 17.56c0,0.41 0.07,0.71 0.2,0.94 0.15,0.21 0.35,0.38 0.6,0.5 0.26,0.12 0.67,0.18 1.24,0.18l1.32 0 0 3.99 -11.4 0 0 -3.99 1.12 0c0.72,0 1.2,-0.06 1.47,-0.2 0.26,-0.12 0.45,-0.33 0.58,-0.62 0.13,-0.28 0.19,-0.81 0.19,-1.56l0 -16.2c0,-0.75 -0.04,-1.24 -0.14,-1.45 -0.12,-0.31 -0.3,-0.53 -0.54,-0.67 -0.25,-0.13 -0.63,-0.2 -1.15,-0.2l-1.53 0 0 -3.99z" />
      <path class="fil4"
        d="M77.79 7.17l9.86 0 3.79 13.64 3.88 -13.64 10.05 0 0 3.1 -1.07 0c-0.58,0 -0.99,0.13 -1.21,0.38 -0.22,0.26 -0.34,0.73 -0.34,1.43l0 12.78c0,0.56 0.04,0.91 0.1,1.05 0.09,0.22 0.22,0.37 0.39,0.46 0.23,0.12 0.53,0.19 0.9,0.19l1.23 0 0 3.1 -10.48 0 0 -3.1 0.81 0c0.6,0 1,-0.05 1.2,-0.14 0.21,-0.1 0.37,-0.25 0.46,-0.45 0.1,-0.2 0.15,-0.57 0.15,-1.11l0 -13.84 -5.3 18.64 -3.01 0 -5.14 -18.04 0 13.68c0,0.31 0.05,0.55 0.16,0.72 0.11,0.17 0.26,0.31 0.46,0.4 0.2,0.09 0.52,0.14 0.96,0.14l1.04 0 0 3.1 -8.89 0 0 -3.1 0.88 0c0.56,0 0.93,-0.05 1.14,-0.16 0.2,-0.1 0.35,-0.26 0.45,-0.48 0.1,-0.22 0.15,-0.63 0.15,-1.22l0 -12.62c0,-0.58 -0.03,-0.96 -0.11,-1.13 -0.09,-0.24 -0.23,-0.41 -0.42,-0.52 -0.19,-0.1 -0.48,-0.16 -0.89,-0.16l-1.2 0 0 -3.1zm39.47 12.75l0 -1.18c0,-0.71 -0.05,-1.19 -0.17,-1.46 -0.11,-0.27 -0.32,-0.49 -0.62,-0.66 -0.31,-0.18 -0.69,-0.27 -1.14,-0.27 -0.34,0 -0.66,0.06 -0.94,0.18 -0.28,0.11 -0.5,0.26 -0.67,0.44 -0.17,0.19 -0.36,0.54 -0.58,1.06 -0.28,0.66 -0.62,1.13 -1.01,1.43 -0.38,0.28 -0.85,0.43 -1.38,0.43 -0.66,0 -1.21,-0.22 -1.64,-0.65 -0.42,-0.43 -0.63,-0.96 -0.63,-1.59 0,-0.71 0.21,-1.35 0.65,-1.91 0.59,-0.74 1.45,-1.35 2.61,-1.82 1.16,-0.47 2.46,-0.71 3.9,-0.71 1.45,0 2.68,0.25 3.7,0.72 1.01,0.49 1.72,1.07 2.12,1.73 0.4,0.68 0.6,1.7 0.6,3.07l0 5.75c0,0.71 0.04,1.16 0.11,1.36 0.07,0.2 0.23,0.38 0.47,0.53 0.24,0.14 0.5,0.22 0.8,0.22 0.29,0 0.68,-0.09 1.17,-0.26l0 3.16c-0.88,0.29 -1.73,0.44 -2.55,0.44 -0.96,0 -1.77,-0.16 -2.45,-0.49 -0.68,-0.32 -1.25,-0.81 -1.71,-1.46 -1.04,0.7 -1.98,1.2 -2.84,1.5 -0.84,0.3 -1.66,0.45 -2.46,0.45 -1.49,0 -2.69,-0.44 -3.61,-1.3 -0.92,-0.87 -1.38,-1.93 -1.38,-3.2 0,-0.72 0.16,-1.38 0.48,-1.98 0.32,-0.6 0.79,-1.13 1.42,-1.58 0.64,-0.45 1.61,-0.85 2.94,-1.2 1.32,-0.35 2.92,-0.6 4.81,-0.75zm0 2.67c-1.37,0.21 -2.33,0.42 -2.9,0.63 -0.56,0.21 -0.97,0.46 -1.21,0.78 -0.24,0.32 -0.36,0.65 -0.36,0.98 0,0.43 0.15,0.79 0.47,1.08 0.31,0.29 0.74,0.43 1.27,0.43 0.35,0 0.75,-0.09 1.21,-0.27 0.45,-0.18 0.96,-0.45 1.52,-0.81l0 -2.82zm8.6 -9.01l9.46 0 0 3.1c-0.5,0 -0.82,0.05 -0.96,0.13 -0.13,0.09 -0.2,0.22 -0.2,0.39 0,0.17 0.14,0.46 0.41,0.85l1.35 1.92 1.38 -1.92c0.29,-0.4 0.43,-0.7 0.43,-0.88 0,-0.17 -0.06,-0.3 -0.19,-0.37 -0.13,-0.08 -0.51,-0.12 -1.13,-0.12l0 -3.1 7.25 0 0 3.1c-0.62,0 -1.08,0.07 -1.38,0.21 -0.29,0.13 -0.63,0.41 -0.99,0.84l-3.04 3.65 3.31 3.71c0.57,0.64 1.02,1.04 1.36,1.21 0.33,0.17 0.82,0.26 1.48,0.26l0 3.1 -10.01 0 0 -3.1 0.57 0c0.46,0 0.75,-0.05 0.88,-0.13 0.14,-0.09 0.21,-0.2 0.21,-0.34 0,-0.14 -0.16,-0.42 -0.47,-0.84l-2.07 -2.76 -1.86 2.6c-0.39,0.53 -0.58,0.87 -0.58,1.02 0,0.13 0.06,0.24 0.19,0.33 0.12,0.08 0.39,0.12 0.81,0.12l0.66 0 0 3.1 -7.67 0 0 -3.1c0.47,0.01 0.84,-0.02 1.1,-0.1 0.27,-0.07 0.5,-0.19 0.7,-0.34 0.21,-0.15 0.48,-0.44 0.82,-0.87l3.53 -4.16 -2.95 -3.36c-0.37,-0.42 -0.71,-0.7 -1.02,-0.84 -0.31,-0.14 -0.77,-0.21 -1.38,-0.21l0 -3.1zm24.44 -7.57c0.79,0 1.46,0.29 2.02,0.87 0.56,0.57 0.84,1.26 0.84,2.08 0,0.83 -0.28,1.53 -0.84,2.1 -0.56,0.58 -1.23,0.87 -2.02,0.87 -0.79,0 -1.46,-0.29 -2.02,-0.87 -0.56,-0.57 -0.84,-1.27 -0.84,-2.08 0,-0.81 0.29,-1.5 0.86,-2.09 0.57,-0.59 1.24,-0.88 2,-0.88zm2.54 7.2l0 11.9c0,0.57 0.03,0.92 0.1,1.05 0.06,0.12 0.17,0.22 0.33,0.29 0.16,0.08 0.53,0.11 1.09,0.11l0.85 0 0 3.1 -9.66 0 0 -3.1 0.83 0c0.54,0 0.88,-0.03 1.03,-0.09 0.15,-0.06 0.26,-0.16 0.34,-0.3 0.07,-0.13 0.11,-0.42 0.11,-0.83l0 -7.67 -2.31 0 0 -3.04c0.82,-0.04 1.61,-0.13 2.37,-0.27 0.75,-0.14 1.43,-0.31 2.02,-0.5 0.38,-0.13 0.86,-0.34 1.42,-0.65l1.48 0zm11.28 0l0 2.15c0.9,-0.73 1.83,-1.26 2.76,-1.62 0.93,-0.35 1.89,-0.53 2.85,-0.53 0.62,0 1.21,0.1 1.78,0.29 0.56,0.18 1.04,0.43 1.41,0.73 0.39,0.3 0.73,0.71 1.04,1.22 1.01,-0.79 1.98,-1.37 2.9,-1.71 0.93,-0.35 1.87,-0.53 2.83,-0.53 0.83,0 1.59,0.16 2.26,0.47 0.68,0.31 1.23,0.73 1.65,1.26 0.42,0.54 0.69,1.11 0.82,1.74 0.08,0.38 0.12,0.94 0.12,1.69l0 6.66c0,0.55 0.04,0.9 0.12,1.06 0.07,0.16 0.21,0.29 0.39,0.37 0.13,0.07 0.5,0.1 1.12,0.1l0.67 0 0 3.1 -9.07 0 0 -3.1c0.67,0 1.09,-0.03 1.27,-0.11 0.18,-0.07 0.31,-0.18 0.39,-0.33 0.08,-0.16 0.13,-0.5 0.13,-1.03l0 -5.84c0,-0.67 -0.05,-1.12 -0.14,-1.34 -0.09,-0.22 -0.26,-0.41 -0.51,-0.57 -0.26,-0.15 -0.56,-0.23 -0.92,-0.23 -0.41,0 -0.84,0.1 -1.31,0.28 -0.47,0.19 -1.16,0.6 -2.08,1.23l0 6.3c0,0.62 0.04,1.01 0.12,1.17 0.09,0.16 0.23,0.29 0.44,0.37 0.13,0.05 0.54,0.09 1.23,0.1l0 3.1 -8.56 0 0 -3.1c0.71,-0.01 1.14,-0.05 1.3,-0.11 0.16,-0.07 0.28,-0.18 0.36,-0.35 0.08,-0.18 0.12,-0.57 0.12,-1.18l0 -5.5c0,-0.84 -0.07,-1.41 -0.21,-1.68 -0.23,-0.42 -0.64,-0.63 -1.22,-0.63 -0.3,0 -0.6,0.04 -0.92,0.11 -0.33,0.08 -0.64,0.19 -0.96,0.35 -0.16,0.09 -0.59,0.37 -1.28,0.84l-0.36 0.24 0 6.27c0,0.6 0.03,0.98 0.1,1.13 0.06,0.14 0.18,0.27 0.36,0.37 0.18,0.09 0.49,0.14 0.94,0.14l0.42 0 0 3.1 -9.11 0 0 -3.1 0.61 0c0.65,0 1.05,-0.03 1.21,-0.11 0.16,-0.07 0.28,-0.19 0.36,-0.37 0.08,-0.17 0.13,-0.56 0.13,-1.16l0 -7.21 -2.31 0 0 -3.11c1.91,-0.19 3.67,-0.65 5.28,-1.39l1.47 0zm24.48 0.37l7.29 -0.13 0 10.43c0,0.74 0.04,1.23 0.13,1.48 0.09,0.25 0.25,0.44 0.49,0.6 0.23,0.16 0.53,0.23 0.89,0.23 0.52,0 1.08,-0.12 1.67,-0.38 0.23,-0.11 0.84,-0.48 1.83,-1.13l0 -6.29c0,-0.55 -0.04,-0.93 -0.12,-1.13 -0.08,-0.2 -0.2,-0.35 -0.36,-0.44 -0.15,-0.09 -0.46,-0.14 -0.91,-0.14l-0.91 0 0 -3.1 7.29 -0.13 0 11.5c0,0.6 0.03,0.98 0.1,1.13 0.07,0.16 0.17,0.27 0.32,0.34 0.15,0.07 0.51,0.11 1.07,0.11l0.81 0 0 3.13 -6.81 0.2 0 -1.92c-0.91,0.7 -1.83,1.22 -2.76,1.56 -0.93,0.35 -1.86,0.53 -2.8,0.53 -0.75,0 -1.43,-0.13 -2.07,-0.38 -0.63,-0.26 -1.15,-0.59 -1.58,-1.02 -0.43,-0.42 -0.75,-0.92 -0.95,-1.48 -0.21,-0.58 -0.32,-1.3 -0.32,-2.19l0 -6.64c0,-0.61 -0.03,-0.99 -0.1,-1.15 -0.07,-0.17 -0.18,-0.28 -0.33,-0.37 -0.17,-0.08 -0.5,-0.12 -1.01,-0.12l-0.86 0 0 -3.1zm28.58 -0.37l0 2.15c0.9,-0.73 1.83,-1.26 2.76,-1.62 0.93,-0.35 1.89,-0.53 2.85,-0.53 0.62,0 1.21,0.1 1.78,0.29 0.56,0.18 1.04,0.43 1.41,0.73 0.39,0.3 0.73,0.71 1.04,1.22 1.01,-0.79 1.98,-1.37 2.91,-1.71 0.92,-0.35 1.86,-0.53 2.82,-0.53 0.83,0 1.59,0.16 2.26,0.47 0.68,0.31 1.23,0.73 1.65,1.26 0.42,0.54 0.69,1.11 0.82,1.74 0.08,0.38 0.12,0.94 0.12,1.69l0 6.66c0,0.55 0.04,0.9 0.12,1.06 0.07,0.16 0.21,0.29 0.39,0.37 0.13,0.07 0.5,0.1 1.12,0.1l0.67 0 0 3.1 -9.07 0 0 -3.1c0.67,0 1.09,-0.03 1.27,-0.11 0.18,-0.07 0.31,-0.18 0.39,-0.33 0.08,-0.16 0.13,-0.5 0.13,-1.03l0 -5.84c0,-0.67 -0.05,-1.12 -0.14,-1.34 -0.09,-0.22 -0.26,-0.41 -0.51,-0.57 -0.26,-0.15 -0.56,-0.23 -0.92,-0.23 -0.4,0 -0.84,0.1 -1.31,0.28 -0.47,0.19 -1.16,0.6 -2.08,1.23l0 6.3c0,0.62 0.04,1.01 0.12,1.17 0.09,0.16 0.23,0.29 0.44,0.37 0.13,0.05 0.54,0.09 1.23,0.1l0 3.1 -8.56 0 0 -3.1c0.71,-0.01 1.14,-0.05 1.3,-0.11 0.16,-0.07 0.28,-0.18 0.36,-0.35 0.08,-0.18 0.13,-0.57 0.13,-1.18l0 -5.5c0,-0.84 -0.08,-1.41 -0.22,-1.68 -0.23,-0.42 -0.64,-0.63 -1.22,-0.63 -0.3,0 -0.6,0.04 -0.92,0.11 -0.33,0.08 -0.64,0.19 -0.96,0.35 -0.16,0.09 -0.59,0.37 -1.28,0.84l-0.36 0.24 0 6.27c0,0.6 0.03,0.98 0.1,1.13 0.06,0.14 0.18,0.27 0.36,0.37 0.18,0.09 0.5,0.14 0.94,0.14l0.42 0 0 3.1 -9.1 0 0 -3.1 0.6 0c0.65,0 1.05,-0.03 1.21,-0.11 0.16,-0.07 0.28,-0.19 0.36,-0.37 0.08,-0.17 0.13,-0.56 0.13,-1.16l0 -7.21 -2.3 0 0 -3.11c1.9,-0.19 3.66,-0.65 5.27,-1.39l1.47 0zm35.82 -6.04l10.61 0 0 3.1 -0.93 0c-0.52,0 -0.84,0.03 -0.98,0.09 -0.25,0.1 -0.43,0.27 -0.54,0.49 -0.11,0.22 -0.17,0.57 -0.17,1.05l0 12.83c0,0.51 0.02,0.83 0.07,0.95 0.05,0.11 0.14,0.21 0.29,0.28 0.15,0.07 0.42,0.1 0.84,0.1 1.39,0 2.51,-0.18 3.36,-0.56 0.85,-0.38 1.61,-0.98 2.29,-1.81 0.68,-0.83 1.27,-1.96 1.76,-3.39l2.87 1.02 -2.87 8.34 -16.6 0 0 -3.1 1.04 0c0.43,0 0.75,-0.06 0.96,-0.18 0.22,-0.12 0.38,-0.28 0.47,-0.48 0.1,-0.2 0.15,-0.54 0.15,-1.04l0 -12.75c0,-0.54 -0.05,-0.92 -0.15,-1.16 -0.09,-0.24 -0.23,-0.41 -0.41,-0.52 -0.18,-0.1 -0.49,-0.16 -0.91,-0.16l-1.15 0 0 -3.1zm34.47 16.53l2.13 2.21c-1.22,1.45 -2.48,2.5 -3.75,3.14 -1.27,0.65 -2.65,0.98 -4.13,0.98 -2.37,0 -4.36,-0.83 -5.98,-2.49 -1.63,-1.65 -2.44,-3.65 -2.44,-6 0,-1.54 0.36,-2.95 1.09,-4.24 0.73,-1.28 1.75,-2.28 3.03,-3 1.3,-0.72 2.76,-1.09 4.39,-1.09 1.05,0 2,0.16 2.85,0.47 0.85,0.31 1.6,0.76 2.24,1.33 0.64,0.58 1.16,1.28 1.55,2.1 0.39,0.82 0.66,1.66 0.8,2.54 0.06,0.44 0.1,1.13 0.1,2.09l-10.52 0c0.02,1.36 0.41,2.46 1.16,3.29 0.75,0.85 1.68,1.26 2.77,1.26 0.69,0 1.46,-0.21 2.28,-0.64 0.82,-0.43 1.63,-1.08 2.43,-1.95zm-3.11 -4.67c-0.08,-0.64 -0.22,-1.14 -0.45,-1.51 -0.22,-0.36 -0.53,-0.66 -0.9,-0.88 -0.39,-0.21 -0.78,-0.32 -1.2,-0.32 -0.44,0 -0.86,0.11 -1.27,0.33 -0.4,0.22 -0.73,0.53 -0.97,0.91 -0.25,0.38 -0.41,0.87 -0.48,1.47l5.27 0zm7.06 -5.45l9.46 0 0 3.1c-0.5,0 -0.82,0.05 -0.95,0.13 -0.14,0.09 -0.21,0.22 -0.21,0.39 0,0.17 0.14,0.46 0.41,0.85l1.36 1.92 1.37 -1.92c0.29,-0.4 0.44,-0.7 0.44,-0.88 0,-0.17 -0.07,-0.3 -0.2,-0.37 -0.13,-0.08 -0.51,-0.12 -1.13,-0.12l0 -3.1 7.26 0 0 3.1c-0.63,0 -1.09,0.07 -1.38,0.21 -0.3,0.13 -0.63,0.41 -1,0.84l-3.04 3.65 3.31 3.71c0.57,0.64 1.02,1.04 1.36,1.21 0.33,0.17 0.83,0.26 1.48,0.26l0 3.1 -10 0 0 -3.1 0.57 0c0.45,0 0.74,-0.05 0.88,-0.13 0.13,-0.09 0.2,-0.2 0.2,-0.34 0,-0.14 -0.16,-0.42 -0.46,-0.84l-2.08 -2.76 -1.86 2.6c-0.39,0.53 -0.58,0.87 -0.58,1.02 0,0.13 0.07,0.24 0.19,0.33 0.13,0.08 0.39,0.12 0.81,0.12l0.67 0 0 3.1 -7.68 0 0 -3.1c0.47,0.01 0.84,-0.02 1.11,-0.1 0.26,-0.07 0.49,-0.19 0.7,-0.34 0.2,-0.15 0.47,-0.44 0.81,-0.87l3.53 -4.16 -2.94 -3.36c-0.38,-0.42 -0.72,-0.7 -1.03,-0.84 -0.31,-0.14 -0.76,-0.21 -1.38,-0.21l0 -3.1z" />
      <g>
        <polygon class="fil4" points="309.96,37.84 77.8,37.84 77.8,35.26 309.96,35.26 " />
      </g>
      <path class="fil4"
        d="M118.38 46.33l7.58 0 0 1.79 -0.66 0c-0.37,0 -0.61,0.02 -0.7,0.05 -0.18,0.06 -0.31,0.15 -0.39,0.28 -0.08,0.13 -0.12,0.33 -0.12,0.61l0 7.41c0,0.3 0.01,0.48 0.05,0.55 0.03,0.07 0.1,0.13 0.2,0.17 0.11,0.04 0.31,0.06 0.6,0.06 1,0 1.8,-0.11 2.4,-0.33 0.61,-0.22 1.15,-0.56 1.64,-1.04 0.49,-0.48 0.91,-1.14 1.26,-1.96l2.04 0.58 -2.04 4.83 -11.86 0 0 -1.8 0.75 0c0.3,0 0.53,-0.03 0.68,-0.1 0.15,-0.07 0.27,-0.16 0.34,-0.28 0.07,-0.11 0.1,-0.31 0.1,-0.6l0 -7.37c0,-0.31 -0.03,-0.53 -0.1,-0.67 -0.07,-0.13 -0.17,-0.23 -0.3,-0.3 -0.13,-0.06 -0.34,-0.09 -0.65,-0.09l-0.82 0 0 -1.79zm20.15 0l3.51 0 4.67 10.04c0.26,0.53 0.48,0.86 0.67,0.98 0.2,0.12 0.56,0.18 1.09,0.18l0 1.8 -7.35 0 0 -1.8 0.44 -0.01c0.41,0 0.7,-0.04 0.86,-0.13 0.17,-0.09 0.24,-0.2 0.24,-0.33 0,-0.12 -0.06,-0.34 -0.21,-0.69l-0.47 -1.19 -4.71 0 -0.59 1.32c-0.11,0.28 -0.17,0.46 -0.17,0.55 0,0.1 0.04,0.19 0.12,0.27 0.09,0.08 0.23,0.14 0.42,0.18 0.13,0.02 0.48,0.03 1.06,0.03l0 1.8 -6.03 0 0 -1.8c0.39,0 0.67,-0.03 0.85,-0.08 0.17,-0.06 0.32,-0.14 0.44,-0.25 0.11,-0.11 0.24,-0.32 0.38,-0.63l4.78 -10.24zm-0.45 7l3.08 0 -1.5 -3.55 -1.58 3.55zm10.6 -7l6.84 0 0 1.79c-0.43,0 -0.7,0.01 -0.81,0.04 -0.1,0.03 -0.2,0.08 -0.28,0.16 -0.07,0.08 -0.11,0.18 -0.11,0.28 0,0.1 0.04,0.3 0.14,0.61l2.08 6.71 1.8 -4.77 -0.7 -1.94c-0.02,-0.04 -0.05,-0.12 -0.09,-0.23 -0.1,-0.31 -0.24,-0.52 -0.43,-0.65 -0.2,-0.13 -0.48,-0.2 -0.84,-0.21l0 -1.79 6.5 0 0 1.79 -0.53 0c-0.38,0 -0.63,0.04 -0.74,0.11 -0.15,0.11 -0.23,0.24 -0.23,0.41 0,0.11 0.05,0.35 0.16,0.72l1.85 5.98 1.91 -5.99c0.14,-0.43 0.21,-0.69 0.21,-0.77 0,-0.15 -0.07,-0.27 -0.2,-0.34 -0.14,-0.08 -0.39,-0.12 -0.76,-0.12l-0.57 0 0 -1.79 5.91 0 0 1.79c-0.42,0 -0.73,0.04 -0.91,0.11 -0.18,0.07 -0.33,0.18 -0.45,0.33 -0.13,0.15 -0.27,0.46 -0.45,0.94l-3.44 9.83 -3.38 0 -1.81 -5.2 -1.93 5.2 -3.49 0 -3.48 -9.98c-0.15,-0.43 -0.28,-0.71 -0.39,-0.84 -0.12,-0.13 -0.27,-0.23 -0.47,-0.3 -0.2,-0.06 -0.5,-0.1 -0.91,-0.09l0 -1.79zm38.21 -0.21c2.46,0 4.46,0.62 5.99,1.87 1.52,1.26 2.29,2.87 2.29,4.83 0,1.33 -0.35,2.5 -1.05,3.52 -0.7,1.02 -1.66,1.81 -2.89,2.36 -1.23,0.56 -2.72,0.84 -4.46,0.84 -2.29,0 -4.17,-0.53 -5.64,-1.58 -1.76,-1.27 -2.65,-2.97 -2.65,-5.1 0,-1.98 0.78,-3.6 2.33,-4.86 1.55,-1.25 3.57,-1.88 6.08,-1.88zm0.04 2.06c-1.18,0 -2.12,0.37 -2.82,1.11 -0.88,0.93 -1.31,2.13 -1.31,3.6 0,1.47 0.4,2.63 1.22,3.49 0.71,0.73 1.64,1.1 2.8,1.1 1.16,0 2.1,-0.37 2.8,-1.1 0.82,-0.88 1.23,-2.05 1.23,-3.51 0,-1.03 -0.17,-1.9 -0.53,-2.6 -0.35,-0.7 -0.83,-1.22 -1.43,-1.57 -0.6,-0.35 -1.25,-0.52 -1.96,-0.52zm9.94 -1.85l12.89 0 1.77 4.14 -2.02 0.59c-0.33,-0.6 -0.64,-1.06 -0.94,-1.37 -0.3,-0.31 -0.65,-0.56 -1.06,-0.77 -0.41,-0.2 -0.86,-0.34 -1.33,-0.41 -0.32,-0.04 -0.89,-0.06 -1.7,-0.06l-1.92 0 0 3.45 0.98 0c0.38,0 0.67,-0.05 0.88,-0.14 0.21,-0.09 0.37,-0.21 0.46,-0.37 0.1,-0.14 0.14,-0.39 0.14,-0.74l0 -0.7 2.01 0 0 5.83 -2.01 0 0 -0.84c0,-0.24 -0.02,-0.42 -0.08,-0.53 -0.06,-0.15 -0.16,-0.27 -0.27,-0.37 -0.13,-0.09 -0.26,-0.16 -0.42,-0.19 -0.15,-0.04 -0.43,-0.06 -0.83,-0.06l-0.86 0 0 2.74c0,0.33 0.03,0.55 0.1,0.66 0.07,0.12 0.17,0.2 0.32,0.26 0.15,0.05 0.44,0.08 0.86,0.08l0.64 0 0 1.8 -7.61 0 0 -1.8 0.51 0c0.56,0 0.93,-0.06 1.1,-0.18 0.18,-0.12 0.27,-0.36 0.27,-0.73l0 -7.48c0,-0.34 -0.04,-0.57 -0.11,-0.68 -0.06,-0.12 -0.18,-0.2 -0.33,-0.26 -0.16,-0.05 -0.47,-0.08 -0.93,-0.08l-0.51 0 0 -1.79zm15.53 0l12.89 0 1.76 4.14 -2.02 0.59c-0.32,-0.6 -0.64,-1.06 -0.94,-1.37 -0.29,-0.31 -0.65,-0.56 -1.06,-0.77 -0.41,-0.2 -0.85,-0.34 -1.33,-0.41 -0.31,-0.04 -0.88,-0.06 -1.7,-0.06l-1.92 0 0 3.45 0.99 0c0.37,0 0.66,-0.05 0.88,-0.14 0.21,-0.09 0.36,-0.21 0.46,-0.37 0.09,-0.14 0.14,-0.39 0.14,-0.74l0 -0.7 2.01 0 0 5.83 -2.01 0 0 -0.84c0,-0.24 -0.03,-0.42 -0.08,-0.53 -0.07,-0.15 -0.16,-0.27 -0.28,-0.37 -0.12,-0.09 -0.26,-0.16 -0.41,-0.19 -0.15,-0.04 -0.43,-0.06 -0.83,-0.06l-0.87 0 0 2.74c0,0.33 0.04,0.55 0.1,0.66 0.07,0.12 0.18,0.2 0.32,0.26 0.15,0.05 0.44,0.08 0.87,0.08l0.63 0 0 1.8 -7.6 0 0 -1.8 0.5 0c0.56,0 0.93,-0.06 1.11,-0.18 0.17,-0.12 0.26,-0.36 0.26,-0.73l0 -7.48c0,-0.34 -0.03,-0.57 -0.1,-0.68 -0.07,-0.12 -0.18,-0.2 -0.34,-0.26 -0.15,-0.05 -0.46,-0.08 -0.93,-0.08l-0.5 0 0 -1.79zm15.39 0l7.57 0 0 1.79 -0.69 0c-0.4,0 -0.66,0.03 -0.79,0.09 -0.13,0.06 -0.23,0.15 -0.29,0.28 -0.07,0.13 -0.1,0.37 -0.1,0.73l0 7.2c0,0.39 0.03,0.65 0.08,0.76 0.05,0.11 0.14,0.19 0.27,0.24 0.15,0.08 0.39,0.11 0.7,0.11l0.82 0 0 1.8 -7.57 0 0 -1.8 0.61 0c0.44,0 0.73,-0.02 0.87,-0.08 0.13,-0.05 0.23,-0.13 0.29,-0.25 0.07,-0.11 0.1,-0.34 0.1,-0.69l0 -7.22c0,-0.41 -0.03,-0.67 -0.1,-0.8 -0.06,-0.13 -0.17,-0.23 -0.32,-0.29 -0.1,-0.05 -0.35,-0.08 -0.76,-0.08l-0.69 0 0 -1.79zm21.2 0l1.58 0 1.52 4.66 -2.07 0.51c-0.69,-1.11 -1.34,-1.9 -1.95,-2.36 -0.85,-0.64 -1.77,-0.96 -2.75,-0.96 -0.72,0 -1.4,0.17 -2.02,0.5 -0.63,0.34 -1.13,0.83 -1.5,1.48 -0.37,0.65 -0.55,1.41 -0.55,2.29 0,1.33 0.42,2.47 1.27,3.43 0.84,0.96 1.94,1.44 3.31,1.44 0.87,0 1.7,-0.2 2.51,-0.62 1,-0.51 1.87,-1.2 2.59,-2.07l1.73 1.07c-1.12,1.28 -2.15,2.17 -3.07,2.67 -1.44,0.78 -3.03,1.17 -4.79,1.17 -1.46,0 -2.79,-0.3 -3.97,-0.88 -1.19,-0.59 -2.13,-1.41 -2.84,-2.46 -0.7,-1.06 -1.06,-2.21 -1.06,-3.45 0,-1.24 0.35,-2.37 1.04,-3.39 0.68,-1.02 1.62,-1.82 2.8,-2.39 1.19,-0.57 2.51,-0.85 3.96,-0.85 1.48,0 2.77,0.25 3.89,0.77l0.37 -0.56zm4.9 0l12.97 0 1.77 4.13 -2.02 0.6c-0.34,-0.67 -0.74,-1.22 -1.2,-1.63 -0.45,-0.41 -0.96,-0.69 -1.51,-0.82 -0.55,-0.14 -1.2,-0.2 -1.94,-0.2l-2.37 0 0 3.26 0.77 0c0.58,0 0.97,-0.03 1.17,-0.11 0.21,-0.07 0.35,-0.18 0.44,-0.33 0.09,-0.16 0.13,-0.46 0.13,-0.91l0 -0.5 2.01 0 0 5.5 -2.01 0 0 -0.57c0,-0.38 -0.05,-0.66 -0.16,-0.83 -0.1,-0.18 -0.25,-0.3 -0.43,-0.36 -0.19,-0.06 -0.59,-0.09 -1.23,-0.09l-0.69 0 0 2.99c0,0.31 0.02,0.5 0.06,0.57 0.03,0.07 0.11,0.12 0.22,0.16 0.1,0.04 0.33,0.06 0.69,0.06l1.31 0c0.97,0 1.79,-0.12 2.46,-0.35 0.67,-0.24 1.27,-0.62 1.79,-1.14 0.52,-0.52 0.92,-1.14 1.2,-1.85l2.04 0.58 -2.04 4.84 -13.43 0 0 -1.8 0.38 0c0.52,0 0.87,-0.03 1.05,-0.09 0.18,-0.06 0.31,-0.17 0.38,-0.33 0.04,-0.09 0.06,-0.35 0.06,-0.79l0 -7.09c0,-0.38 -0.03,-0.64 -0.1,-0.76 -0.06,-0.11 -0.16,-0.2 -0.29,-0.26 -0.14,-0.06 -0.4,-0.09 -0.79,-0.09l-0.69 0 0 -1.79z" />
    </g>
  </g>
</svg>