<!-- Generated by IcoMoon.io -->
<svg version="1.1" xmlns="http://www.w3.org/2000/svg" width="32" height="32" viewBox="0 0 32 32">
  <title>phone</title>
  <path fill="#ffffff"
    d="M0.069 24.794c0.090-0.273 0.666-0.675 1.727-1.204 0.287-0.167 0.697-0.394 1.226-0.682s1.012-0.553 1.443-0.796c0.432-0.242 0.837-0.478 1.216-0.704 0.061-0.045 0.25-0.178 0.568-0.398s0.587-0.382 0.807-0.489c0.189-0.097 0.411-0.156 0.647-0.159h0.001c0.303 0 0.681 0.217 1.136 0.648 0.45 0.428 0.86 0.888 1.229 1.38l0.021 0.029c0.379 0.508 0.78 0.977 1.204 1.409s0.772 0.648 1.045 0.648c0.137 0 0.307-0.038 0.512-0.113 0.194-0.070 0.348-0.135 0.498-0.206l-0.032 0.014c0.105-0.054 0.287-0.159 0.544-0.318s0.402-0.247 0.432-0.263c2.075-1.151 3.856-2.469 5.341-3.954 1.484-1.485 2.802-3.265 3.954-5.341 0.015-0.030 0.103-0.174 0.261-0.431s0.266-0.439 0.318-0.545c0.060-0.12 0.125-0.274 0.183-0.432l0.011-0.034c0.076-0.205 0.113-0.374 0.113-0.511 0-0.273-0.216-0.621-0.647-1.046-0.429-0.421-0.889-0.815-1.373-1.178l-0.036-0.025c-0.508-0.379-0.977-0.796-1.409-1.25s-0.648-0.833-0.648-1.137c0-0.212 0.053-0.427 0.159-0.647 0.159-0.311 0.321-0.576 0.501-0.826l-0.013 0.019c0.221-0.318 0.353-0.507 0.398-0.568 0.228-0.378 0.462-0.784 0.704-1.216-0.029 0.096 0.235-0.376 0.497-0.85l0.299-0.593c0.362-0.686 0.589-1.088 0.82-1.486l-0.139 0.259c0.53-1.060 0.931-1.636 1.204-1.727 0.106-0.045 0.265-0.068 0.478-0.068 0.409 0 0.942 0.076 1.602 0.228s1.178 0.31 1.557 0.478c0.758 0.318 1.56 1.242 2.409 2.772 0.773 1.424 1.159 2.834 1.159 4.227 0 0.408-0.026 0.806-0.080 1.193-0.075 0.506-0.174 0.947-0.302 1.376l0.018-0.069c-0.133 0.495-0.245 0.855-0.368 1.21l0.039-0.131c-0.084 0.235-0.239 0.655-0.466 1.261-0.027 0.028-0.165 0.397-0.3 0.768l-0.11 0.346c-0.53 1.485-1.159 2.81-1.887 3.977-1.196 1.94-2.829 3.943-4.897 6.012s-4.072 3.701-6.012 4.897c-1.166 0.728-2.492 1.356-3.977 1.887-0.136 0.045-0.508 0.181-1.114 0.409s-1.027 0.382-1.261 0.466c-0.224 0.084-0.584 0.197-0.949 0.299l-0.131 0.031c-0.486 0.136-0.921 0.231-1.307 0.284s-0.784 0.080-1.193 0.080c-1.393 0-2.803-0.387-4.227-1.159-1.53-0.849-2.454-1.652-2.773-2.41-0.167-0.379-0.326-0.898-0.478-1.557-0.15-0.659-0.226-1.192-0.226-1.601 0-0.213 0.022-0.372 0.068-0.479z">
  </path>
</svg>